<?xml version="1.0" standalone="no"?>
<!DOCTYPE svg PUBLIC "-//W3C//DTD SVG 20010904//EN"
 "http://www.w3.org/TR/2001/REC-SVG-20010904/DTD/svg10.dtd">
<svg version="1.0" xmlns="http://www.w3.org/2000/svg"
 width="246.000000pt" height="246.000000pt" viewBox="0 0 246.000000 246.000000"
 preserveAspectRatio="xMidYMid meet">
<metadata>
Created by potrace 1.14, written by Peter Selinger 2001-2017
</metadata>
<g transform="translate(0.000000,246.000000) scale(0.100000,-0.100000)"
fill="#000000" stroke="none">
<path d="M818 1682 l-98 -3 0 -459 0 -460 68 0 68 0 -1 185 c0 102 2 191 6
197 5 8 58 12 166 12 l158 1 3 68 3 68 -123 -1 c-68 -1 -143 -1 -168 -1 l-45
1 1 123 c1 67 2 125 3 128 0 4 74 7 164 7 89 0 181 1 205 1 l42 1 0 65 0 65
-52 0 c-29 0 -109 2 -178 3 -69 1 -169 1 -222 -1z"/>
<path d="M1587 1578 c-15 -57 -30 -111 -32 -121 -2 -10 -36 -138 -75 -285 -40
-147 -78 -292 -86 -322 -8 -30 -17 -63 -20 -72 -5 -16 3 -18 65 -18 l69 0 10
43 c5 23 33 130 62 237 29 107 54 202 55 210 2 8 4 15 5 15 1 0 3 7 5 15 6 33
77 297 85 320 4 14 11 37 14 53 l6 27 -67 0 -68 0 -28 -102z"/>
<path d="M162 1321 c-79 -80 -146 -149 -149 -154 -4 -4 61 -75 144 -158 l151
-150 43 41 44 41 -114 111 -114 111 109 108 c60 60 108 114 106 120 -2 9 -72
81 -76 78 -1 -1 -65 -67 -144 -148z"/>
<path d="M2106 1428 c-21 -22 -35 -42 -32 -46 3 -4 54 -54 112 -112 l105 -106
-113 -112 -113 -112 43 -41 44 -41 150 151 151 151 -19 22 c-28 31 -258 261
-275 274 -11 8 -23 2 -53 -28z"/>
</g>
</svg>
