<svg width="49" height="49" viewBox="0 0 49 49" fill="none" xmlns="http://www.w3.org/2000/svg">
<mask id="mask0_725_49" style="mask-type:alpha" maskUnits="userSpaceOnUse" x="0" y="0" width="49" height="49">
<rect x="0.953613" y="0.279724" width="48" height="48" fill="#D9D9D9"/>
</mask>
<g mask="url(#mask0_725_49)">
<path d="M14.3287 18.0297H21.6016C21.928 18.0297 22.2058 17.9156 22.435 17.6873C22.6641 17.4589 22.7787 17.1702 22.7787 16.821C22.7787 16.4935 22.6641 16.2172 22.435 15.9922C22.2058 15.7672 21.928 15.6547 21.6016 15.6547H14.3287C13.982 15.6547 13.6954 15.7701 13.4687 16.0009C13.242 16.2318 13.1287 16.5151 13.1287 16.8509C13.1287 17.1868 13.242 17.4672 13.4687 17.6922C13.6954 17.9172 13.982 18.0297 14.3287 18.0297ZM28.6287 35.0297H36.1516C36.478 35.0297 36.7558 34.9156 36.985 34.6873C37.2141 34.4589 37.3287 34.1702 37.3287 33.821C37.3287 33.4935 37.2141 33.2256 36.985 33.0172C36.7558 32.8089 36.478 32.7047 36.1516 32.7047H28.6287C28.282 32.7047 27.9954 32.8099 27.7687 33.0201C27.542 33.2304 27.4287 33.5035 27.4287 33.8393C27.4287 34.1752 27.542 34.4575 27.7687 34.6864C27.9954 34.9153 28.282 35.0297 28.6287 35.0297ZM28.6287 29.6547H36.1516C36.478 29.6547 36.7558 29.5406 36.985 29.3123C37.2141 29.0839 37.3287 28.7952 37.3287 28.446C37.3287 28.1185 37.2141 27.8422 36.985 27.6172C36.7558 27.3922 36.478 27.2797 36.1516 27.2797H28.6287C28.282 27.2797 27.9954 27.3951 27.7687 27.6259C27.542 27.8568 27.4287 28.1401 27.4287 28.4759C27.4287 28.8118 27.542 29.0922 27.7687 29.3172C27.9954 29.5422 28.282 29.6547 28.6287 29.6547ZM17.9874 36.7547C18.3149 36.7547 18.5912 36.6414 18.8162 36.4147C19.0412 36.1881 19.1537 35.9014 19.1537 35.5547V32.3547H22.3589C22.6804 32.3547 22.9558 32.2406 23.185 32.0123C23.4141 31.7839 23.5287 31.4952 23.5287 31.146C23.5287 30.8185 23.4141 30.5422 23.185 30.3172C22.9558 30.0922 22.6804 29.9797 22.3589 29.9797H19.1537V26.7746C19.1537 26.453 19.0383 26.1776 18.8075 25.9485C18.5767 25.7193 18.2933 25.6047 17.9575 25.6047C17.6216 25.6047 17.3412 25.7193 17.1162 25.9485C16.8912 26.1776 16.7787 26.453 16.7787 26.7746V29.9797H13.5787C13.232 29.9797 12.9454 30.0951 12.7187 30.3259C12.492 30.5568 12.3787 30.8401 12.3787 31.1759C12.3787 31.5118 12.492 31.7922 12.7187 32.0172C12.9454 32.2422 13.232 32.3547 13.5787 32.3547H16.7787V35.5547C16.7787 35.9014 16.8929 36.1881 17.1212 36.4147C17.3495 36.6414 17.6382 36.7547 17.9874 36.7547ZM28.3412 20.7422C28.5829 20.9839 28.8734 21.1047 29.2128 21.1047C29.5522 21.1047 29.8408 20.9797 30.0787 20.7297L32.2787 18.5297L34.5287 20.7797C34.7592 21.0297 35.0348 21.1464 35.3556 21.1297C35.6763 21.1131 35.959 20.9797 36.2037 20.7297C36.4537 20.4797 36.5787 20.1922 36.5787 19.8672C36.5787 19.5422 36.4537 19.2547 36.2037 19.0047L33.9787 16.8297L36.2287 14.5797C36.462 14.3464 36.5745 14.0714 36.5662 13.7547C36.5579 13.4381 36.4329 13.1589 36.1912 12.9172C35.9495 12.6756 35.659 12.5547 35.3196 12.5547C34.9802 12.5547 34.6999 12.6714 34.4787 12.9047L32.2787 15.1047L30.0287 12.8547C29.7787 12.6214 29.4939 12.5131 29.1742 12.5297C28.8545 12.5464 28.581 12.6714 28.3537 12.9047C28.1037 13.1487 27.9787 13.4418 27.9787 13.7843C27.9787 14.1267 28.1037 14.4085 28.3537 14.6297L30.5537 16.8297L28.3287 19.0797C28.0787 19.3297 27.9579 19.6089 27.9662 19.9172C27.9745 20.2256 28.0995 20.5006 28.3412 20.7422ZM10.0537 42.0547C9.28808 42.0547 8.61751 41.767 8.04201 41.1914C7.46648 40.6159 7.17871 39.9454 7.17871 39.1797V9.37973C7.17871 8.6141 7.46648 7.94353 8.04201 7.36803C8.61751 6.7925 9.28808 6.50473 10.0537 6.50473H39.8537C40.6193 6.50473 41.2899 6.7925 41.8654 7.36803C42.4409 7.94353 42.7287 8.6141 42.7287 9.37973V39.1797C42.7287 39.9454 42.4409 40.6159 41.8654 41.1914C41.2899 41.767 40.6193 42.0547 39.8537 42.0547H10.0537ZM10.0537 39.1797H39.8537V9.37973H10.0537V39.1797Z" fill="white"/>
</g>
</svg>
