<svg xmlns="http://www.w3.org/2000/svg" version="1.1" xmlns:xlink="http://www.w3.org/1999/xlink" xmlns:svgjs="http://svgjs.com/svgjs" width="960" height="1000" preserveAspectRatio="none" viewBox="0 0 960 1000"><g mask="url(&quot;#SvgjsMask1008&quot;)" fill="none"><rect width="960" height="1000" x="0" y="0" fill="rgba(255, 255, 255, 1)"></rect><path d="M720 175.38C687.37 177.23 681.82 207.69 681.82 240C681.82 272.31 690.22 283.21 720 304.62C829.31 383.21 855.21 363.43 960 440C975.21 451.12 960 460 960 480C960 600 960 600 960 720C960 840 960 840 960 960C960 1080 1020 1140 960 1200C900 1260 840 1200 720 1200C600 1200 600 1200 480 1200C360 1200 360 1200 240 1200C120 1200 60 1260 0 1200C-60 1140 0 1080 0 960C0 840 0 840 0 720C0 600 0 600 0 480C0 360 0 360 0 240C0 120 -60 60 0 0C60 -60 120 0 240 0C360 0 360 0 480 0C600 0 600 0 720 0C840 0 897.96 -57.96 960 0C1017.96 54.15 1017.35 182.3 960 224.21C897.35 269.99 826.46 169.34 720 175.38" stroke="rgba(5, 4, 4, 1)" stroke-width="2"></path><path d="M240 394.58C147.13 394.58 91.15 402.52 38.4 480C-19.62 565.23 -25.35 619.71 18.46 720C75.45 850.48 162.4 941.54 240 941.54C296.03 941.54 264.43 831.07 285.71 720C308.64 600.3 343.61 588.16 328.42 480C320.76 425.45 292.14 394.58 240 394.58" stroke="rgba(5, 4, 4, 1)" stroke-width="2"></path><path d="M720 627.1C669.82 627.1 668.63 666.33 643.2 720C589.77 832.78 541.18 857.01 562.29 960C579.58 1044.32 648.7 1094.63 720 1094.63C777.74 1094.63 776.48 1031.34 820.36 960C891.68 844.03 976.67 807.14 950.4 720C926.49 640.69 823.42 627.1 720 627.1" stroke="rgba(5, 4, 4, 1)" stroke-width="2"></path><path d="M160 0C218.99 32.55 197.61 132.41 240 132.41C284.44 132.41 270.58 34.8 333.66 0C390.58 -31.4 406.83 0 480 0C600 0 600 0 720 0C840 0 885.25 -45.25 960 0C1005.25 27.38 1003.58 134.36 960 145.26C883.58 164.36 815.11 33.99 720 60C641.93 81.36 613.64 150 613.64 240C613.64 330 656.23 339.73 720 420C751.57 459.73 804.32 451.7 804.32 480C804.32 506.86 754.38 496.1 720 530.32C633.82 616.1 632.45 619.1 563.2 720C512.45 793.94 524.59 880 480 880C433.47 880 390.99 806.74 380.95 720C367.83 606.74 467.3 581.89 433.68 480C396.83 368.33 354.56 346.13 240 292.88C137.72 245.33 103.47 301.2 0 278.4C-16.53 274.76 0 259.2 0 240C0 120 -48 72 0 0C32 -48 98.99 -33.66 160 0" stroke="rgba(5, 4, 4, 1)" stroke-width="2"></path><path d="M0 821.05C40.7 821.05 76.14 884.99 138.95 960C196.14 1028.31 180.13 1042.69 240 1107.69C290.65 1162.69 360 1174.25 360 1200C360 1220.41 300 1200 240 1200C170.77 1200 166.34 1216.2 101.54 1200C46.34 1186.2 20.1 1187.5 0 1140C-30.67 1067.5 0 1050 0 960C0 890.53 -28.78 821.05 0 821.05" stroke="rgba(5, 4, 4, 1)" stroke-width="2"></path><path d="M929.45 960C929.45 932.36 951.84 905.81 960 905.81C967.11 905.81 960 932.9 960 960C960 992.31 967.25 1024.62 960 1024.62C951.98 1024.62 929.45 991.76 929.45 960" stroke="rgba(5, 4, 4, 1)" stroke-width="2"></path><path d="M35 0C35 19.95 9.39 60 0 60C-8.11 60 -11.05 18.95 0 0C6.45 -11.05 35 -10.05 35 0" stroke="rgba(5, 4, 4, 1)" stroke-width="2"></path><path d="M320 240C320 129.01 419.47 0 480 0C532.2 0 545.45 122.32 545.45 240C545.45 318.11 528.28 391.58 480 391.58C415.55 391.58 320 324.8 320 240" stroke="rgba(5, 4, 4, 1)" stroke-width="2"></path><path d="M960 66.32C905.39 66.32 807.27 17.3 807.27 0C807.27 -15.86 906.76 -23.12 960 0C983.12 10.04 981.75 66.32 960 66.32" stroke="rgba(5, 4, 4, 1)" stroke-width="2"></path><path d="M476.19 720C476.19 712.31 478.24 704 480 704C481.75 704 483.2 712.23 483.2 720C483.2 723.3 481.72 726.15 480 726.15C478.21 726.15 476.19 723.38 476.19 720" stroke="rgba(5, 4, 4, 1)" stroke-width="2"></path><path d="M0 926.32C9.86 926.32 33.68 942.08 33.68 960C33.68 980.74 9.4 1003.64 0 1003.64C-7.44 1003.64 0 981.82 0 960C0 943.16 -6.98 926.32 0 926.32" stroke="rgba(5, 4, 4, 1)" stroke-width="2"></path></g><defs><mask id="SvgjsMask1008"><rect width="960" height="1000" fill="#ffffff"></rect></mask></defs></svg>