<svg xmlns="http://www.w3.org/2000/svg" version="1.1" xmlns:xlink="http://www.w3.org/1999/xlink" xmlns:svgjs="http://svgjs.com/svgjs" width="1440" height="560" preserveAspectRatio="none" viewBox="0 0 1440 560"><g mask="url(&quot;#SvgjsMask1046&quot;)" fill="none"><rect width="1440" height="560" x="0" y="0" fill="rgba(2, 2, 2, 1)"></rect><path d="M99.3 0C133.1 20.12 111.05 48.83 140 83.33C169.79 118.83 182.72 107.14 216.77 140C252.72 174.68 254.74 218.4 280 218.4C300.98 218.4 306.29 180.74 309.25 140C314.22 71.54 266.44 37.18 295.85 0C321.81 -32.82 357.92 0 420 0C487.14 0 487.79 -1.99 554.29 0C557.79 0.1 556.99 4.18 560 4.18C563.84 4.18 563.52 0.13 568 0C633.52 -1.96 634 0 700 0C747.14 0 750.92 -11.01 794.29 0C820.92 6.77 817.49 35.56 840 35.56C861.47 35.56 856.99 6.42 882.26 0C926.99 -11.36 931.13 0 980 0C1044.75 0 1046.55 -4.5 1109.5 0C1116.55 0.5 1113.27 7.45 1120 10C1188.52 35.93 1189.28 35.9 1260 56.95C1329.28 77.57 1331.59 98.5 1400 93.33C1471.59 87.93 1498.54 21.99 1540 35.81C1568.54 45.32 1540 87.91 1540 140C1540 200.54 1547.05 203.25 1540 261.08C1538.52 273.25 1522.93 269.66 1522.93 280C1522.93 293.71 1538.01 292.81 1540 309.17C1546.54 362.81 1540 364.59 1540 420C1540 490 1575 525 1540 560C1505 595 1470 560 1400 560C1332 560 1330.63 562.67 1264 560C1260.63 559.87 1262.72 554.4 1260 554.4C1254.88 554.4 1254.74 559.74 1248.33 560C1184.74 562.54 1184.16 560 1120 560C1050 560 1050 560 980 560C910 560 910 560 840 560C782.86 560 750.07 591.45 725.71 560C695.84 521.45 738.09 489.08 731.55 420C725.23 353.2 719.25 288.24 700 288.24C680.14 288.24 659.47 352.53 653.33 420C647.11 488.41 701.02 521.4 675.29 560C654.36 591.4 617.64 560 560 560C490 560 490 560 420 560C350 560 350 560 280 560C210 560 210 560 140 560C86.77 560 62.2 589.91 33.54 560C-4.88 519.91 21.49 489.22 5.83 420C4.72 415.1 0.21 416.74 0 411.76C-2.71 346.74 0 345.88 0 280C0 210 0 210 0 140C0 70 -29.05 40.95 0 0C20.6 -29.05 63.1 -21.54 99.3 0" stroke="rgba(255, 255, 255, 1)" stroke-width="2"></path><path d="M1120 264.09C1087.78 270.09 1056.36 272.43 1056.36 280C1056.36 287.53 1088.3 286.63 1120 294.29C1190.12 311.23 1197.94 334.2 1260 329.19C1286.51 327.05 1297.14 303.4 1297.14 280C1297.14 259.85 1284.13 244.25 1260 242.08C1195.56 236.29 1189.6 251.13 1120 264.09" stroke="rgba(255, 255, 255, 1)" stroke-width="2"></path><path d="M280 353.33C260.68 353.33 255 386.37 255 420C255 458.59 260.13 497.78 280 497.78C304.45 497.78 343.64 457.67 343.64 420C343.64 385.45 305 353.33 280 353.33" stroke="rgba(255, 255, 255, 1)" stroke-width="2"></path><path d="M58.6 0C86.09 49.48 82.93 71.05 77.78 140C72.47 211.05 67.02 216.33 37.69 280C28.13 300.74 11.72 308.82 0 308.82C-7.12 308.82 0 294.41 0 280C0 210 0 210 0 140C0 70 -20.65 49.35 0 0C8.65 -20.65 47.2 -20.52 58.6 0" stroke="rgba(255, 255, 255, 1)" stroke-width="2"></path><path d="M361.49 140C351.55 71.44 341.22 49.47 361.89 0C370.47 -20.53 390.94 0 420 0C451.43 0 455.09 -11.19 482.86 0C525.09 17.02 519.31 56.42 560 56.42C611.88 56.42 612.56 22.34 668 0C682.56 -5.87 684 0 700 0C711.43 0 722.86 -8.13 722.86 0C722.86 24.81 711.43 32.94 700 65.88C687.14 102.94 697.32 109.39 674.29 140C627.32 202.45 626 212 560 252C510.52 282 499.37 261.32 443.33 280C429.37 284.65 431 298.67 420 298.67C410.58 298.67 406.87 291.84 402.5 280C377.61 212.5 371.85 211.44 361.49 140" stroke="rgba(255, 255, 255, 1)" stroke-width="2"></path><path d="M740.65 140C741.76 102.55 794.43 121.84 840 91.11C898.25 51.84 891.11 37.22 948.3 0C961.11 -8.34 964.15 0 980 0C1001 0 1005.42 -11.05 1022 0C1075.42 35.61 1061.9 64.95 1120 93.33C1180.9 123.08 1191.74 99.35 1260 116.27C1285.88 122.69 1308.28 127.09 1308.28 140C1308.28 153.54 1286.92 162.8 1260 169.17C1192.78 185.07 1188.08 168.56 1120 184.55C1048.08 201.44 1050.22 210.37 980 234.92C913.72 258.09 852.15 239.17 847 280C840.48 331.71 900.24 351.47 956.67 420C966.74 432.24 967.39 441.54 980 441.54C995.85 441.54 996.07 429.5 1013.6 420C1066.07 391.58 1065.66 365.71 1120 365.71C1185.36 365.71 1253 387.61 1253 420C1253 455.06 1179.56 452.88 1120 500.61C1092.21 522.88 1108.03 547.39 1078.3 560C1038.03 577.08 1029.15 560 980 560C910 560 910 560 840 560C818.57 560 804.04 576.32 797.14 560C774.46 506.32 771.82 487.85 780.85 420C790.45 347.85 843.86 345.91 834.4 280C823.76 205.91 738.96 196.99 740.65 140" stroke="rgba(255, 255, 255, 1)" stroke-width="2"></path><path d="M1502.31 140C1502.31 127.96 1527.58 117.21 1540 117.21C1546.43 117.21 1540 128.61 1540 140C1540 153.25 1546.88 166.49 1540 166.49C1528.04 166.49 1502.31 152.6 1502.31 140" stroke="rgba(255, 255, 255, 1)" stroke-width="2"></path><path d="M1368.57 280C1384.56 254.51 1383.23 228.67 1400 228.67C1417.72 228.67 1426.82 250.65 1437.56 280C1461.82 346.31 1435.95 367.25 1470 420C1487.17 446.59 1526.91 412.5 1540 438.67C1561.91 482.5 1572.5 531.83 1540 560C1502.5 592.5 1470 560 1400 560C1382 560 1374.84 572.65 1364 560C1314.84 502.65 1278.87 489.49 1280 420C1281.15 349.49 1324.56 350.17 1368.57 280" stroke="rgba(255, 255, 255, 1)" stroke-width="2"></path><path d="M78.75 420C92.94 376.71 110.74 346.5 140 346.5C167.62 346.5 172.99 379.7 192.5 420C224.68 486.45 258.88 518.68 243.38 560C232.63 588.68 191.69 560 140 560C105 560 80.2 583.3 70 560C49.57 513.3 57.94 483.46 78.75 420" stroke="rgba(255, 255, 255, 1)" stroke-width="2"></path><path d="M511 420C540.77 397.82 540.81 362.35 560 362.35C575.52 362.35 573.41 390.31 580.42 420C596.75 489.14 614.36 507.28 606.67 560C604.15 577.28 583.34 560 560 560C490 560 490 560 420 560C377.67 560 335.35 578.75 335.35 560C335.35 532.09 371.52 505.31 420 466.67C459.35 435.31 470.77 449.98 511 420" stroke="rgba(255, 255, 255, 1)" stroke-width="2"></path><path d="M17.91 0C17.91 22.97 4.58 59.23 0 59.23C-4.38 59.23 -6.88 22.74 0 0C2.08 -6.88 17.91 -6.65 17.91 0" stroke="rgba(255, 255, 255, 1)" stroke-width="2"></path><path d="M413.73 140C413.73 105.44 396.15 75.11 420 70C469.29 59.44 493.05 83.03 560 108.66C584.48 118.03 602.86 122.79 602.86 140C602.86 159.46 587.11 179.61 560 182C495.68 187.68 485.2 174.87 420 156.15C412.07 153.87 413.73 148.52 413.73 140" stroke="rgba(255, 255, 255, 1)" stroke-width="2"></path><path d="M863.33 140C863.33 110.58 924.99 65 980 65C1023.71 65 1060.77 109.29 1060.77 140C1060.77 164.59 1021.44 175.59 980 175.59C922.72 175.59 863.33 165.87 863.33 140" stroke="rgba(255, 255, 255, 1)" stroke-width="2"></path><path d="M830.14 420C830.14 407.49 833.31 395.86 840 395.86C847.96 395.86 859.44 406.54 859.44 420C859.44 441.95 847.54 466.67 840 466.67C832.89 466.67 830.14 442.89 830.14 420" stroke="rgba(255, 255, 255, 1)" stroke-width="2"></path><path d="M106.46 560C106.46 513.07 119.66 440.74 140 440.74C161.2 440.74 189.54 516.9 189.54 560C189.54 576.53 164.77 560 140 560C123.23 560 106.46 572.7 106.46 560" stroke="rgba(255, 255, 255, 1)" stroke-width="2"></path><path d="M416.74 560C416.74 558.93 417.81 556.41 420 556.41C427.22 556.41 435.56 559.09 435.56 560C435.56 560.89 427.78 560 420 560C418.37 560 416.74 560.72 416.74 560" stroke="rgba(255, 255, 255, 1)" stroke-width="2"></path><path d="M917.78 560C917.78 552.47 952.14 531.28 980 531.28C995.17 531.28 1003.83 551.24 1003.83 560C1003.83 565.6 991.91 560 980 560C948.89 560 917.78 566.83 917.78 560" stroke="rgba(255, 255, 255, 1)" stroke-width="2"></path><path d="M1474.67 560C1474.67 548.11 1518.99 516.44 1540 516.44C1551.66 516.44 1553.07 551.29 1540 560C1520.4 573.07 1474.67 569.89 1474.67 560" stroke="rgba(255, 255, 255, 1)" stroke-width="2"></path></g><defs><mask id="SvgjsMask1046"><rect width="1440" height="560" fill="#ffffff"></rect></mask></defs></svg>