<svg width="120" height="120" viewBox="0 0 120 120" fill="none" xmlns="http://www.w3.org/2000/svg">
<g clip-path="url(#clip0_705_15)">
<path d="M117.735 54.6487L65.3326 2.26499C62.3251 -0.761262 57.4238 -0.761262 54.3938 2.26499L43.5338 13.1437L57.3413 26.9325C60.5626 25.86 64.2376 26.58 66.7763 29.1412C69.3563 31.7212 70.0763 35.43 68.9851 38.6325L82.2676 51.9337C85.4888 50.82 89.2013 51.5437 91.7588 54.12C95.3738 57.7125 95.3738 63.5325 91.7588 67.1287C88.1663 70.7212 82.3651 70.7212 78.7688 67.1287C76.0726 64.4325 75.3901 60.45 76.7363 57.15L64.2938 44.7675V77.4037C65.1713 77.835 66.0113 78.42 66.7351 79.1437C70.3088 82.7587 70.3088 88.5562 66.7351 92.1525C63.1426 95.745 57.3001 95.745 53.6888 92.1525C50.0963 88.56 50.0963 82.7587 53.6888 79.1437C54.6076 78.2437 55.6238 77.58 56.7151 77.1337V44.1862C55.6426 43.7175 54.6038 43.0725 53.7076 42.1762C50.9926 39.4612 50.3288 35.4787 51.7351 32.1375L38.1788 18.5062L2.24254 54.4237C-0.746211 57.4312 -0.746211 62.3325 2.24254 65.3625L54.6451 117.746C57.6713 120.772 62.5538 120.772 65.5838 117.746L117.731 65.5987C120.758 62.5912 120.758 57.69 117.731 54.66L117.735 54.6487Z" fill="#CACACA"/>
</g>
<defs>
<clipPath id="clip0_705_15">
<rect width="120" height="120" fill="white"/>
</clipPath>
</defs>
</svg>
