<svg width="120" height="120" viewBox="0 0 120 120" fill="none" xmlns="http://www.w3.org/2000/svg">
<path d="M1.43994 2.51251V119.873H118.8V2.51251H1.43994ZM62.6924 102.908C60.9637 106.421 57.6599 108.731 53.8349 109.845C47.9549 111.195 42.3337 110.426 38.1487 107.914C35.3474 106.196 33.1612 103.553 31.6799 100.508C34.6574 98.6888 37.6274 96.8588 40.6049 95.04C40.6837 95.0738 40.9162 95.4975 41.2312 96.045C42.3674 97.9538 43.3499 99.3038 45.2812 100.249C47.1787 100.894 51.3374 101.31 52.9462 97.9725C53.9287 96.2775 53.6137 90.7125 53.6137 84.6788C53.6137 75.195 53.6587 65.8688 53.6587 56.2688H64.6349C64.6349 66.3488 64.6912 76.455 64.6349 86.52C64.6574 92.6888 65.1937 98.2988 62.6924 102.908ZM108.232 99.8063C104.419 112.86 83.1412 113.284 74.6437 104.659C72.8474 102.63 71.7224 101.569 70.6499 99.225C75.1687 96.6263 75.1687 96.6263 79.5637 94.0838C81.9524 97.755 84.1612 99.7725 88.1324 100.598C93.5212 101.254 98.9437 99.405 97.7287 93.6825C96.4799 89.0063 86.6962 87.87 80.0362 82.8713C73.2749 78.33 71.6924 67.2975 77.2462 60.9938C79.0987 58.6613 82.2562 56.9213 85.5674 56.085L89.0249 55.6388C95.6624 55.5038 99.8137 57.255 102.859 60.66C103.706 61.5188 104.396 62.445 105.694 64.455C102.157 66.7088 102.169 66.6863 97.1024 69.9675C96.0187 67.635 94.2262 66.1725 92.3287 65.5388C89.3849 64.6463 85.6687 65.6175 84.8999 68.73C84.6337 69.69 84.6899 70.5825 85.1137 72.165C86.3062 74.8875 90.3112 76.0688 93.9037 77.7188C104.246 81.915 107.737 86.4075 108.596 91.7625C109.421 96.3713 108.394 99.36 108.24 99.8063H108.232Z" fill="#CACACA"/>
</svg>
