<svg width="120" height="120" viewBox="0 0 120 120" fill="none" xmlns="http://www.w3.org/2000/svg">
<g clip-path="url(#clip0_705_17)">
<path d="M70.812 17.3254C68.6312 13.8929 69.3286 11.6291 70.5323 9.29212C71.6097 7.20017 72.0497 3.56465 68.2429 0.703468C71.7479 -0.586597 77.2788 1.69436 77.3741 5.87268C75.3402 8.67125 69.7845 9.7833 70.812 17.3254V17.3254ZM95.9772 94.4615C94.2754 99.9774 95.0514 102.912 87.6507 114.364C100.736 105.531 106.909 94.1264 108.947 81.1825C110.226 86.5798 110.347 91.4758 109.844 96.102C120.687 81.8268 128.117 53.0407 103.127 24.1045C102.122 36.8949 89.752 46.9659 75.486 43.0169C99.9466 40.3203 101.514 9.21662 80.5004 2.03446C80.9108 10.6877 69.1046 7.85414 72.5765 19.4303C60.5512 12.6267 34.2777 11.2284 23.8327 21.5505C18.4482 26.8718 14.7727 31.2727 8.04318 31.5634C2.48669 31.8034 -4.8505 40.8198 4.69592 45.431C5.60772 49.2734 8.81198 51.4614 10.67 51.8384C10.2079 58.6811 11.6634 55.1922 13.7963 52.2099C13.0796 60.8594 14.2607 57.7434 17.6036 53.2933C45.8854 47.5735 61.5046 70.6377 61.6812 84.8038C61.5569 82.2336 57.4481 79.2446 55.2738 80.0679C53.8048 83.1803 52.204 85.822 50.2284 87.1253C50.435 85.0617 50.2939 82.9982 49.9189 80.9346C49.2677 83.43 48.0411 86.0213 46.0807 88.7349C42.1813 88.9525 36.7238 86.0521 38.3113 81.2441C40.5507 76.5684 36.1583 75.5961 32.6196 76.9348C29.9606 77.9407 28.1638 80.7265 27.9179 81.5927C27.031 84.7172 27.3229 91.6928 33.3897 96.3185C31.7993 96.6114 30.1664 96.8725 29.0563 97.5257C39.3765 103.767 49.9104 101.658 55.7763 99.3031C65.3806 95.4468 72.0048 84.7731 73.0411 76.5393C75.7069 88.1207 70.931 100.992 60.2259 107.895C63.2844 108.219 69.2711 106.147 75.3932 103.964C70.7652 109.788 65.2332 115.311 56.1711 119.658C74.0205 118.162 87.0765 109.2 95.9772 94.4615" fill="#CACACA"/>
</g>
<defs>
<clipPath id="clip0_705_17">
<rect width="120" height="120" fill="white"/>
</clipPath>
</defs>
</svg>
