<svg width="120" height="120" viewBox="0 0 120 120" fill="none" xmlns="http://www.w3.org/2000/svg">
<path d="M34.1801 104.265C32.0901 104.265 30.0001 103.735 28.0851 102.665L25.4701 101.2C23.6651 100.19 23.0201 97.91 24.0301 96.095C25.0351 94.295 27.3201 93.64 29.1351 94.655L31.7451 96.115C33.3251 96.99 35.1351 96.98 36.7051 96.06C38.2801 95.13 39.1901 93.545 39.1901 91.705V37.99C39.1901 35.92 40.8701 34.24 42.9401 34.24C45.0101 34.24 46.6901 35.92 46.6901 37.99V91.705C46.6901 96.205 44.3751 100.25 40.5001 102.525C38.5301 103.68 36.3551 104.265 34.1801 104.265Z" fill="#CACACA"/>
<path d="M60.01 119.995C58.445 119.995 56.88 119.59 55.49 118.775L43.475 111.74C41.69 110.69 41.085 108.395 42.13 106.61C43.175 104.82 45.47 104.225 47.26 105.265L59.275 112.3C59.725 112.57 60.265 112.575 60.735 112.3L104.23 86.83C104.705 86.555 105 86.035 105 85.455V34.53C105 33.96 104.7 33.43 104.22 33.15L60.745 7.7C60.285 7.435 59.735 7.43 59.295 7.695L15.755 33.16C15.29 33.435 15 33.955 15 34.52V85.455C15 86.015 15.3 86.555 15.76 86.82L29.2 94.69C30.985 95.74 31.59 98.035 30.545 99.82C29.495 101.6 27.2 102.2 25.415 101.165L11.975 93.295C9.21504 91.68 7.50004 88.67 7.50004 85.455V34.53C7.49004 31.32 9.20504 28.31 11.965 26.69L55.485 1.23C58.275 -0.404996 61.735 -0.409996 64.535 1.225L108.02 26.68C110.79 28.31 112.5 31.32 112.5 34.53V85.465C112.49 88.68 110.78 91.67 108.035 93.295L64.525 118.775C63.135 119.59 61.57 119.995 60.01 119.995Z" fill="#CACACA"/>
<path d="M72.1901 85.76C60.9501 85.76 48.9401 81.885 48.9401 71.005C48.9401 68.935 50.6201 67.255 52.6901 67.255C54.7601 67.255 56.4401 68.935 56.4401 71.005C56.4401 76.735 66.3401 78.26 72.1901 78.26C82.6401 78.26 87.9401 77.135 87.9401 71.005C87.9401 67.925 84.1801 66.72 74.9451 64.52L71.2851 63.635C70.1651 63.36 68.9801 63.1 67.7651 62.83C59.8201 61.075 48.9351 58.68 48.9351 48.99C48.9351 38.11 60.9451 34.235 72.1851 34.235C83.4251 34.235 95.4351 38.11 95.4351 48.99C95.4351 51.06 93.7551 52.74 91.6851 52.74C89.6151 52.74 87.9351 51.06 87.9351 48.99C87.9351 43.26 78.0351 41.735 72.1851 41.735C66.3351 41.735 56.4351 43.265 56.4351 48.99C56.4351 52.38 62.0451 53.885 69.3801 55.505C70.6651 55.79 71.9151 56.065 73.0901 56.36L76.6801 57.225C86.3301 59.52 95.4401 61.69 95.4401 71.005C95.4401 85.76 79.7351 85.76 72.1901 85.76Z" fill="#CACACA"/>
</svg>
